<svg xmlns="http://www.w3.org/2000/svg" viewBox="0 0 1140 950" font-family="DejaVu Sans, Arial, Helvetica, sans-serif"><rect x="0" y="0" width="1140" height="950" fill="#ffffff"/><defs><marker id="ah" viewBox="0 0 10 10" refX="8.5" refY="5" markerWidth="7.5" markerHeight="7.5" orient="auto-start-reverse"><path d="M0,0 L10,5 L0,10 L3,5 z" fill="#64748b"/></marker><linearGradient id="auto" x1="0" y1="0" x2="1" y2="0"><stop offset="0" stop-color="#cbd5e1"/><stop offset="1" stop-color="#ea580c"/></linearGradient></defs><path d="M665.5,143.6 Q773.6,176.4 806.4,284.5" fill="none" stroke="#64748b" stroke-width="3.2" marker-end="url(#ah)"/><path d="M806.4,475.5 Q773.6,583.6 665.5,616.4" fill="none" stroke="#64748b" stroke-width="3.2" marker-end="url(#ah)"/><path d="M474.5,616.4 Q366.4,583.6 333.6,475.5" fill="none" stroke="#64748b" stroke-width="3.2" marker-end="url(#ah)"/><path d="M333.6,284.5 Q366.4,176.4 474.5,143.6" fill="none" stroke="#64748b" stroke-width="3.2" stroke-dasharray="3 7" marker-end="url(#ah)"/><text x="332" y="150" text-anchor="middle" font-size="13.5" fill="#5b6472" font-style="italic">next step /</text><text x="332" y="168" text-anchor="middle" font-size="13.5" fill="#5b6472" font-style="italic">next lab</text><circle cx="570" cy="380" r="82" fill="#f8fafc" stroke="#cbd5e1" stroke-width="1.5"/><text x="570" y="350" text-anchor="middle" font-size="15" font-weight="700" fill="#1f2937">Kolb’s</text><text x="570" y="369" text-anchor="middle" font-size="15" font-weight="700" fill="#1f2937">Experiential</text><text x="570" y="388" text-anchor="middle" font-size="15" font-weight="700" fill="#1f2937">Learning Cycle</text><text x="570" y="414" text-anchor="middle" font-size="12.5" fill="#5b6472">one guided step =</text><text x="570" y="430" text-anchor="middle" font-size="12.5" fill="#5b6472">one full turn</text><rect x="405.0" y="50.0" width="330" height="160" rx="16" fill="#eef2ff" stroke="#4f46e5" stroke-width="2.2"/><rect x="405.0" y="50.0" width="6" height="160" rx="3" fill="#4f46e5"/><circle cx="435.0" cy="80.0" r="17" fill="#4f46e5"/><text x="435.0" y="86.0" text-anchor="middle" font-size="19" font-weight="700" fill="#ffffff">1</text><text x="588" y="77.0" text-anchor="middle" font-size="12.5" font-weight="700" letter-spacing="1.2" fill="#4338ca">ABSTRACT CONCEPTUALIZATION</text><text x="570" y="108.0" text-anchor="middle" font-size="21" font-weight="700" fill="#1f2937">Predict &amp; estimate</text><text x="570" y="134.0" text-anchor="middle" font-size="13.8" fill="#5b6472">Commit to a model before the result:</text><text x="570" y="153.0" text-anchor="middle" font-size="13.8" fill="#5b6472">predict the outcome or estimate a value.</text><rect x="462.7" y="178.0" width="214.6" height="23" rx="11.5" fill="#ffffff" stroke="#4f46e5" stroke-width="1.2" opacity="0.95"/><text x="570" y="194.0" text-anchor="middle" font-size="12" font-weight="600" fill="#4338ca">generation &amp; prediction effects</text><rect x="730.0" y="300.0" width="330" height="160" rx="16" fill="#fff7ed" stroke="#ea580c" stroke-width="2.2"/><rect x="730.0" y="300.0" width="6" height="160" rx="3" fill="#ea580c"/><circle cx="760.0" cy="330.0" r="17" fill="#ea580c"/><text x="760.0" y="336.0" text-anchor="middle" font-size="19" font-weight="700" fill="#ffffff">2</text><text x="913" y="327.0" text-anchor="middle" font-size="12.5" font-weight="700" letter-spacing="1.2" fill="#c2410c">CONCRETE EXPERIENCE</text><text x="895" y="358.0" text-anchor="middle" font-size="21" font-weight="700" fill="#1f2937">Run the line</text><text x="895" y="384.0" text-anchor="middle" font-size="13.8" fill="#5b6472">Experience a year of production in an</text><text x="895" y="403.0" text-anchor="middle" font-size="13.8" fill="#5b6472">instant on the instrumented dashboard.</text><rect x="794.3" y="428.0" width="201.4" height="23" rx="11.5" fill="#ffffff" stroke="#ea580c" stroke-width="1.2" opacity="0.95"/><text x="895" y="444.0" text-anchor="middle" font-size="12" font-weight="600" fill="#c2410c">compressed, direct experience</text><rect x="405.0" y="550.0" width="330" height="160" rx="16" fill="#f0fdfa" stroke="#0d9488" stroke-width="2.2"/><rect x="405.0" y="550.0" width="6" height="160" rx="3" fill="#0d9488"/><circle cx="435.0" cy="580.0" r="17" fill="#0d9488"/><text x="435.0" y="586.0" text-anchor="middle" font-size="19" font-weight="700" fill="#ffffff">3</text><text x="588" y="577.0" text-anchor="middle" font-size="12.5" font-weight="700" letter-spacing="1.2" fill="#0f766e">REFLECTIVE OBSERVATION</text><text x="570" y="608.0" text-anchor="middle" font-size="21" font-weight="700" fill="#1f2937">Reveal &amp; self-explain</text><text x="570" y="634.0" text-anchor="middle" font-size="13.8" fill="#5b6472">See the outcome and error-specific</text><text x="570" y="653.0" text-anchor="middle" font-size="13.8" fill="#5b6472">feedback; then explain why, briefly.</text><rect x="433.0" y="678.0" width="274.0" height="23" rx="11.5" fill="#ffffff" stroke="#0d9488" stroke-width="1.2" opacity="0.95"/><text x="570" y="694.0" text-anchor="middle" font-size="12" font-weight="600" fill="#0f766e">self-explanation  •  elaborated feedback</text><rect x="80.0" y="300.0" width="330" height="160" rx="16" fill="#faf5ff" stroke="#9333ea" stroke-width="2.2"/><rect x="80.0" y="300.0" width="6" height="160" rx="3" fill="#9333ea"/><circle cx="110.0" cy="330.0" r="17" fill="#9333ea"/><text x="110.0" y="336.0" text-anchor="middle" font-size="19" font-weight="700" fill="#ffffff">4</text><text x="263" y="327.0" text-anchor="middle" font-size="12.5" font-weight="700" letter-spacing="1.2" fill="#7e22ce">ACTIVE EXPERIMENTATION</text><text x="245" y="358.0" text-anchor="middle" font-size="21" font-weight="700" fill="#1f2937">Challenge &amp; capstone</text><text x="245" y="384.0" text-anchor="middle" font-size="13.8" fill="#5b6472">Redesign the line to hit a target;</text><text x="245" y="403.0" text-anchor="middle" font-size="13.8" fill="#5b6472">diagnose an unlabeled failure, then fix.</text><rect x="124.5" y="428.0" width="241.0" height="23" rx="11.5" fill="#ffffff" stroke="#9333ea" stroke-width="1.2" opacity="0.95"/><text x="245" y="444.0" text-anchor="middle" font-size="12" font-weight="600" fill="#7e22ce">productive failure  •  interleaving</text><text x="570.0" y="804" text-anchor="middle" font-size="17" font-weight="700" fill="#1f2937">Increasing autonomy across the lab sequence</text><path d="M120,829 L980,829 L980,822 L1030,838 L980,854 L980,847 L120,847 Z" fill="url(#auto)" stroke="#94a3b8" stroke-width="1"/><text x="150" y="880" text-anchor="middle" font-size="14.5" font-weight="600" fill="#5b6472">Scaffolded prediction</text><text x="150" y="899" text-anchor="middle" font-size="13" fill="#5b6472">(early labs)</text><text x="960" y="880" text-anchor="middle" font-size="14.5" font-weight="600" fill="#c2410c">Independent diagnosis</text><text x="960" y="899" text-anchor="middle" font-size="13" fill="#c2410c">(capstone)</text></svg>